<svg width="17" height="17" viewBox="0 0 17 17" fill="none" xmlns="http://www.w3.org/2000/svg">
<path d="M7.56586 1.4449C7.89347 0.587451 9.10653 0.587453 9.43414 1.4449L10.8966 5.27256C11.038 5.64255 11.3844 5.89424 11.78 5.91436L15.8722 6.12242C16.7889 6.16903 17.1638 7.32271 16.4495 7.89926L13.2611 10.4729C12.9529 10.7217 12.8206 11.129 12.9237 11.5114L13.9904 15.4676C14.2294 16.3539 13.248 17.0669 12.4789 16.5658L9.04595 14.3288C8.7141 14.1125 8.2859 14.1125 7.95405 14.3288L4.52107 16.5658C3.75203 17.0669 2.77065 16.3539 3.0096 15.4676L4.07629 11.5114C4.1794 11.129 4.04708 10.7217 3.73888 10.4729L0.550483 7.89926C-0.163765 7.32271 0.211092 6.16903 1.12781 6.12242L5.22005 5.91436C5.61562 5.89424 5.96204 5.64255 6.10341 5.27256L7.56586 1.4449Z" fill="#01ACB4"/>
</svg>
